<?xml version="1.0" standalone="no"?>
<!DOCTYPE svg PUBLIC "-//W3C//DTD SVG 20010904//EN"
 "http://www.w3.org/TR/2001/REC-SVG-20010904/DTD/svg10.dtd">
<svg version="1.0" xmlns="http://www.w3.org/2000/svg"
 width="300.000000pt" height="299.000000pt" viewBox="0 0 300.000000 299.000000"
 preserveAspectRatio="xMidYMid meet">
<metadata>
Created by potrace 1.10, written by Peter Selinger 2001-2011
</metadata>
<g transform="translate(0.000000,299.000000) scale(0.100000,-0.100000)"
fill="#000000" stroke="none">
<path d="M1317 2405 c-303 -58 -572 -290 -664 -572 l-27 -83 -118 0 -118 0 5
-37 c5 -34 65 -695 65 -715 0 -4 44 -8 98 -8 53 0 136 -6 184 -14 73 -11 91
-17 107 -38 36 -45 164 -136 251 -177 120 -58 279 -96 294 -72 9 15 -16 28
-67 35 -132 20 -304 104 -417 206 -33 29 -33 31 -10 26 14 -3 187 -29 385 -57
198 -28 362 -53 364 -55 2 -1 -45 -64 -104 -140 -96 -122 -104 -136 -79 -129
16 4 195 47 397 95 203 49 371 91 373 93 3 2 15 54 27 116 l22 111 83 0 c49 0
82 4 82 10 0 6 25 174 55 375 30 200 55 366 55 369 0 3 -125 6 -277 6 -222 0
-275 -3 -265 -12 10 -10 77 -14 250 -16 130 -2 241 -7 246 -12 8 -8 -12 -168
-39 -310 -8 -41 -16 -97 -19 -125 -3 -27 -8 -61 -11 -75 -2 -13 -7 -42 -10
-65 -14 -104 -23 -115 -93 -115 -44 0 -113 -25 -91 -32 11 -4 11 -10 2 -30 -6
-14 -14 -47 -18 -74 -11 -81 -24 -114 -46 -114 -10 0 -85 9 -165 21 -81 11
-148 18 -150 16 -3 -2 43 -12 101 -22 106 -18 116 -22 76 -30 -11 -2 -26 -7
-32 -11 -9 -5 -60 -19 -144 -39 -52 -12 -312 -77 -327 -81 -26 -8 -13 21 37
81 23 28 50 64 61 80 10 17 23 33 28 37 15 10 -21 46 -58 57 -30 10 -276 48
-366 57 -61 7 -143 25 -155 35 -6 4 -20 8 -30 9 -144 3 -288 13 -320 22 -22 6
-87 14 -145 17 l-104 6 -7 35 c-4 19 -10 62 -13 95 -3 33 -7 74 -10 90 -3 17
-8 62 -10 100 -3 39 -10 132 -16 207 -7 76 -10 144 -7 153 5 12 25 15 95 15
53 0 93 5 99 11 9 9 19 9 42 -1 38 -15 246 -9 263 8 9 9 -19 12 -129 12 l-142
0 19 53 c66 187 175 332 328 436 138 93 256 131 434 138 108 5 141 2 221 -16
254 -59 466 -231 576 -469 14 -28 30 -52 38 -52 50 0 -53 186 -171 309 -114
117 -233 190 -393 237 -112 32 -281 41 -396 19z"/>
<path d="M1452 2275 c-7 -14 -22 -29 -34 -34 -23 -9 -23 -9 5 -22 15 -7 30
-23 33 -36 l6 -24 19 30 c10 17 26 31 34 31 8 0 15 5 15 10 0 6 -7 10 -15 10
-8 0 -24 14 -34 30 l-18 30 -11 -25z"/>
<path d="M1286 2165 c-50 -51 17 -117 71 -70 27 23 27 25 13 52 -18 33 -60 42
-84 18z"/>
<path d="M2407 2143 c-2 -5 -5 -66 -6 -138 l-1 -130 44 120 c24 66 47 128 51
138 6 15 1 17 -38 17 -25 0 -48 -3 -50 -7z"/>
<path d="M1584 2119 c-9 -15 12 -33 30 -26 9 4 16 13 16 22 0 17 -35 21 -46 4z"/>
<path d="M1496 2074 c-21 -21 -20 -41 3 -54 40 -21 74 19 45 51 -21 23 -28 24
-48 3z"/>
<path d="M2515 1948 c-28 -46 -52 -87 -54 -91 -2 -5 25 12 60 38 34 25 68 49
76 53 10 6 9 15 -4 45 -10 20 -20 37 -23 37 -3 0 -28 -37 -55 -82z"/>
<path d="M452 1993 c-18 -3 -32 -8 -30 -12 6 -15 133 -180 139 -181 5 0 -24
115 -46 188 -3 6 -10 11 -17 10 -7 0 -28 -3 -46 -5z"/>
<path d="M1462 1945 c-287 -12 -524 -24 -526 -26 -2 -2 0 -29 4 -59 13 -85 20
-139 27 -212 l6 -68 502 0 502 0 17 148 c9 81 20 168 23 195 5 42 3 47 -13 46
-11 -1 -254 -12 -542 -24z m502 -137 c-3 -62 -9 -131 -13 -153 l-7 -40 -466 0
-467 0 -10 45 c-16 74 -21 208 -8 218 7 4 62 10 122 11 61 2 238 9 395 16 157
7 325 13 373 14 l88 1 -7 -112z"/>
<path d="M1348 1857 c-11 -4 -24 -5 -29 -2 -5 3 -18 1 -30 -6 -16 -8 -27 -8
-44 1 -17 9 -28 9 -44 1 -15 -9 -26 -9 -42 -1 -16 9 -25 8 -40 -6 -10 -9 -19
-25 -19 -35 0 -44 24 -122 45 -147 22 -26 23 -26 50 -8 27 18 29 18 58 1 26
-16 30 -16 45 -2 14 15 18 14 44 -4 36 -26 100 -21 131 9 20 20 20 22 4 40 -9
10 -17 31 -17 46 0 24 2 25 20 16 13 -7 20 -21 20 -41 0 -19 9 -39 26 -55 24
-25 26 -25 45 -8 19 17 22 17 48 1 15 -9 37 -14 48 -11 11 3 24 1 27 -5 4 -6
24 -11 44 -11 70 0 111 40 80 77 -17 21 -19 70 -2 84 18 14 18 43 1 57 -8 7
-57 11 -118 12 -57 0 -155 1 -217 2 -62 2 -122 0 -134 -5z m159 -47 c-10 -27
-27 -41 -27 -22 1 24 14 52 25 52 11 0 11 -6 2 -30z m-345 -41 l14 -62 19 62
c10 33 23 61 30 61 6 0 20 -28 30 -62 l18 -63 12 58 c12 57 20 75 30 65 9 -8
-30 -158 -41 -158 -5 0 -19 28 -31 63 l-20 62 -19 -62 c-10 -35 -24 -63 -30
-63 -6 0 -18 33 -27 73 -20 83 -20 87 -8 87 5 0 16 -28 23 -61z m298 51 c0 -5
-20 -10 -45 -10 -41 0 -45 -2 -45 -25 0 -21 5 -25 30 -25 17 0 30 -4 30 -10 0
-5 -13 -10 -30 -10 -25 0 -30 -4 -30 -25 0 -23 4 -25 45 -25 25 0 45 -4 45
-10 0 -5 -25 -10 -55 -10 l-55 0 0 80 0 80 55 0 c30 0 55 -4 55 -10z m181 0
c23 -13 25 -52 4 -70 -13 -11 -13 -15 0 -41 18 -33 18 -39 5 -39 -6 0 -18 16
-27 35 -12 25 -23 35 -40 35 -20 0 -23 -5 -23 -35 0 -19 -4 -35 -10 -35 -6 0
-10 33 -10 80 l0 80 41 0 c22 0 49 -5 60 -10z m169 0 c0 -5 -22 -10 -50 -10
-47 0 -50 -2 -50 -25 0 -22 4 -25 35 -25 19 0 35 -4 35 -10 0 -5 -16 -10 -35
-10 -31 0 -35 -3 -35 -25 0 -23 3 -25 50 -25 28 0 50 -4 50 -10 0 -6 -27 -10
-60 -10 l-60 0 0 80 0 80 60 0 c33 0 60 -4 60 -10z"/>
<path d="M1560 1782 c0 -28 1 -29 38 -23 28 5 37 11 37 26 0 16 -8 21 -37 23
-36 3 -38 2 -38 -26z"/>
<path d="M765 1506 c-24 -24 -25 -31 -25 -139 0 -100 2 -116 20 -135 12 -12
32 -22 45 -22 26 0 65 42 65 71 0 10 5 21 10 24 16 10 40 -14 40 -41 0 -44 65
-69 104 -39 17 13 22 13 42 0 30 -19 54 -19 82 1 20 14 24 14 44 0 32 -23 65
-20 93 8 l25 25 29 -25 c30 -25 79 -32 98 -13 8 8 21 7 48 -2 31 -12 40 -11
64 2 25 15 31 15 53 1 36 -22 77 -9 90 28 5 17 13 30 17 30 4 0 24 -16 45 -35
25 -23 48 -35 67 -35 28 0 37 6 63 44 13 19 14 19 45 -6 18 -15 54 -31 86 -38
52 -11 60 -10 103 12 62 31 104 90 96 138 -2 19 -11 38 -19 43 -8 4 -15 19
-15 33 0 58 -53 94 -137 94 -44 0 -123 -34 -123 -52 0 -18 -36 -6 -45 15 -7
16 -20 23 -47 25 -31 3 -39 -1 -54 -25 -10 -15 -19 -30 -21 -32 -1 -2 -18 10
-38 28 -38 33 -99 43 -123 19 -10 -10 -17 -10 -32 0 -28 17 -70 15 -92 -5 -17
-15 -21 -15 -59 2 -48 22 -178 24 -216 4 -18 -10 -26 -10 -35 -1 -16 16 -81
15 -96 0 -10 -10 -17 -10 -32 0 -48 30 -100 7 -114 -50 -3 -16 -12 -28 -19
-28 -15 0 -40 37 -33 49 7 11 -23 37 -51 45 -17 5 -29 1 -48 -18z m75 -56 l0
-50 55 0 55 0 0 50 0 50 35 0 35 0 0 -130 0 -130 -35 0 -35 0 0 50 0 50 -55 0
-55 0 0 -50 0 -50 -35 0 -35 0 0 130 0 130 35 0 35 0 0 -50z m305 -80 l0 -130
-37 0 -38 0 0 130 0 130 38 0 37 0 0 -130z m244 115 c49 -25 58 -92 17 -122
l-24 -18 30 -52 29 -53 -38 0 c-35 0 -40 4 -63 45 -14 25 -28 45 -31 45 -4 0
-14 3 -23 6 -13 5 -16 -2 -16 -45 l0 -51 -35 0 -35 0 0 130 0 130 80 0 c52 0
91 -5 109 -15z m161 -115 l0 -130 -35 0 -35 0 0 130 0 130 35 0 35 0 0 -130z
m168 68 c26 -33 54 -70 62 -80 14 -18 15 -12 12 61 l-4 81 36 0 36 0 0 -130 0
-130 -33 0 c-30 0 -40 8 -95 81 l-62 82 0 -82 0 -81 -32 0 -33 0 0 130 0 130
33 0 c28 0 39 -9 80 -62z m410 42 c38 -23 39 -29 8 -52 -21 -15 -26 -16 -36
-3 -7 9 -29 15 -50 15 -30 0 -43 -6 -59 -26 -24 -30 -26 -43 -10 -78 17 -36
65 -54 97 -35 40 23 39 39 -2 32 -35 -5 -36 -5 -36 26 l0 31 75 0 c65 0 75 -2
75 -17 -1 -37 -39 -102 -69 -117 -41 -22 -119 -20 -157 3 -33 20 -64 75 -64
113 0 45 39 97 90 120 32 14 105 8 138 -12z"/>
<path d="M1270 1416 l0 -35 41 3 c23 2 45 9 49 16 13 22 -1 40 -30 40 -16 0
-35 3 -44 6 -13 5 -16 -1 -16 -30z"/>
</g>
</svg>
